# xmcd
#
# Track frame offsets:
#	150
#	17842
#	38347
#	58667
#	74082
#	92002
#	114047
#	131282
#	149372
#	172442
#	192902
#	210792
#	230567
#
# Disc length: 3626 seconds
#
# Revision: 0
# Processed by: cddbd v1.5.2PL0 Copyright (c) Steve Scherf et al.
# Submitted via: EasyCDDAExtractor 10.0.2.1
#
DISCID=b10e280d
DTITLE=Various Artist - 2007 Mainstream Stepper Vol 5
DYEAR=2007
DGENRE=R&B
TTITLE0=Simply Red - So Not Over You
TTITLE1=Marcell and The Truth - Hopes Too High
TTITLE2=Bobby Valentino - Only Human
TTITLE3=Carl Thomas - Another You
TTITLE4=Tank - I Love Them Girls
TTITLE5=Rick James - Stop It
TTITLE6=Rick James - Secrets
TTITLE7=Howard Hewett - I'll Be Right Here
TTITLE8=Howard Hewett - I Wanna Know
TTITLE9=Robin Thicke - Shooter
TTITLE10=Keith Murray w/Tyrese - Can't Nobody Do It Better
TTITLE11=Joss Stone - Tell Me What U Gonna Do
TTITLE12=Liz Hogue w/L. Liston Smith - Dream Lover (BLT Rmx)
EXTD=
EXTT0=
EXTT1=
EXTT2=
EXTT3=
EXTT4=
EXTT5=
EXTT6=
EXTT7=
EXTT8=
EXTT9=
EXTT10=
EXTT11=
EXTT12=
PLAYORDER=
